<?xml version="1.0" encoding="utf-8"?>
<!-- Generator: Adobe Illustrator 16.0.0, SVG Export Plug-In . SVG Version: 6.00 Build 0)  -->
<!DOCTYPE svg PUBLIC "-//W3C//DTD SVG 1.1//EN" "http://www.w3.org/Graphics/SVG/1.1/DTD/svg11.dtd">
<svg version="1.1" id="图层_1" xmlns="http://www.w3.org/2000/svg" xmlns:xlink="http://www.w3.org/1999/xlink" x="0px" y="0px"
	 width="272.5px" height="185.5px" viewBox="0 0 545 371" enable-background="new 0 0 545 371" xml:space="preserve">
<path fill="none" stroke="#ff9520" stroke-miterlimit="10" d="M320.798,224.229l-171-171l-11,9c0,0-15.02,13.854-29.455,26.177
	c5.387,6.827,8.602,15.448,8.602,24.823H37.798c0-17.223,10.85-31.904,26.081-37.586c-5.141-4.038-8.448-10.309-8.448-17.356
	c0-12.182,9.868-22.058,22.041-22.058c12.172,0,22.041,9.875,22.041,22.058c0,6.933-3.199,13.114-8.196,17.158"/>
<path fill-rule="evenodd" clip-rule="evenodd" fill="none" stroke="#ff9520" stroke-miterlimit="10" d="M451.113,118.084
	c-4.987-4.044-8.18-10.226-8.18-17.158c0-12.183,9.849-22.058,21.997-22.058c12.149,0,21.998,9.875,21.998,22.058
	c0,7.048-3.301,13.318-8.432,17.356c15.2,5.682,26.029,20.363,26.029,37.586h-79.991c0-9.375,3.209-17.996,8.585-24.823
	l-92.802,92.8"/>
<path fill-rule="evenodd" clip-rule="evenodd" fill="none" stroke="#ff9520" stroke-miterlimit="10" d="M234.221,316.163
	c-4.988-4.044-8.18-10.226-8.18-17.158c0-12.183,9.849-22.058,21.997-22.058s21.998,9.875,21.998,22.058
	c0,7.048-3.301,13.318-8.432,17.356c15.2,5.682,26.029,20.363,26.029,37.586h-79.991c0-9.375,3.208-17.996,8.584-24.823
	l-82.509-82.509L238.333,142"/>
<path fill-rule="evenodd" clip-rule="evenodd" fill="none" stroke="#ff9520" stroke-miterlimit="10" d="M330.743,219.479
	c7.18,0,13,5.82,13,13s-5.82,13-13,13s-13-5.82-13-13S323.563,219.479,330.743,219.479z"/>
</svg>
