<?xml version="1.0" encoding="utf-8"?>
<!-- Generator: Adobe Illustrator 17.0.0, SVG Export Plug-In . SVG Version: 6.00 Build 0)  -->
<!DOCTYPE svg PUBLIC "-//W3C//DTD SVG 1.1//EN" "http://www.w3.org/Graphics/SVG/1.1/DTD/svg11.dtd">
<svg version="1.1" id="椭圆_23_副本_4_1_" xmlns="http://www.w3.org/2000/svg" xmlns:xlink="http://www.w3.org/1999/xlink"
	 x="0px" y="0px" width="59px" height="59px" viewBox="0 0 59 59" enable-background="new 0 0 59 59" xml:space="preserve">
<g id="椭圆_23_副本_4">
	<g>
		<path fill="#FF9520" d="M29.5,1c-0.009,0-0.019,0-0.028,0c-0.003,0-0.006,0-0.009,0c-0.007,0-0.014,0-0.021,0
			c-0.003,0-0.005,0-0.008,0c-0.009,0-0.019,0-0.028,0c-0.002,0-0.004,0-0.006,0c-0.008,0-0.015,0-0.023,0c-0.004,0-0.005,0-0.009,0
			c-0.008,0-0.016,0-0.023,0c-0.001,0-0.004,0-0.005,0c-0.009,0-0.019,0-0.028,0c-0.003,0-0.004,0-0.007,0c-0.007,0-0.015,0-0.022,0
			c-0.003,0-0.005,0-0.008,0c-0.009,0-0.018,0-0.027,0c-0.002,0-0.002,0-0.004,0c-0.009,0-0.018,0-0.026,0c-0.003,0-0.004,0-0.007,0
			c-0.008,0-0.015,0-0.023,0c-0.002,0-0.004,0-0.006,0c-0.01,0-0.019,0-0.029,0c-0.001,0-0.003,0-0.004,0c-0.008,0-0.017,0-0.025,0
			c-0.002,0-0.005,0-0.007,0c-0.009,0-0.018,0-0.026,0l-0.002,0c-0.01,0-0.02,0-0.029,0c-0.002,0-0.003,0-0.005,0
			c-0.008,0-0.016,0-0.024,0c-0.002,0-0.004,0-0.006,0c-0.019,0-0.039,0.001-0.058,0.001c-0.002,0-0.004,0-0.005,0
			c-0.009,0-0.017,0-0.026,0c-0.002,0-0.002,0-0.004,0c-0.01,0-0.02,0-0.03,0.001c-0.001,0-0.001,0-0.002,0
			c-0.009,0-0.018,0-0.027,0.001c-0.002,0-0.004,0-0.006,0c-0.02,0-0.039,0.001-0.059,0.001c-0.001,0-0.002,0-0.003,0
			c-0.009,0-0.018,0-0.027,0.001c-0.002,0-0.001,0-0.003,0c-0.02,0.001-0.04,0.001-0.06,0.002c-0.001,0-0.003,0-0.004,0
			c-0.009,0-0.019,0.001-0.028,0.001l-0.002,0c-0.02,0.001-0.04,0.001-0.06,0.002c-0.002,0-0.002,0-0.004,0
			c-0.02,0.001-0.04,0.001-0.061,0.002l-0.001,0c-0.01,0-0.02,0.001-0.03,0.001l-0.001,0c-0.052,0.002-0.104,0.004-0.157,0.006h0
			C27.4,1.06,26.449,1.146,25.512,1.277l0.277,1.981C27.01,3.087,28.258,3,29.5,3V1L29.5,1L29.5,1z M21.603,2.108
			c-0.278,0.08-0.554,0.164-0.828,0.252c0,0-0.001,0-0.001,0c-0.021,0.007-0.041,0.013-0.062,0.02c0,0,0,0-0.001,0
			c-0.007,0.002-0.013,0.004-0.02,0.006c-0.001,0-0.002,0.001-0.003,0.001c-0.019,0.006-0.039,0.013-0.058,0.019
			c-0.001,0-0.003,0.001-0.004,0.001c-0.019,0.006-0.037,0.012-0.056,0.018c-0.002,0.001-0.005,0.002-0.007,0.002
			c-0.006,0.002-0.011,0.003-0.017,0.005c-0.002,0.001-0.004,0.001-0.007,0.002c-0.01,0.003-0.019,0.006-0.029,0.01
			c-0.003,0.001-0.006,0.002-0.009,0.003c-0.005,0.002-0.01,0.003-0.015,0.005c-0.004,0.001-0.007,0.002-0.011,0.004
			c-0.008,0.003-0.015,0.005-0.023,0.008c-0.004,0.001-0.009,0.003-0.013,0.004c-0.004,0.001-0.009,0.003-0.013,0.004
			c-0.004,0.001-0.008,0.003-0.012,0.004c-0.004,0.001-0.009,0.003-0.013,0.004c-0.008,0.003-0.015,0.005-0.022,0.008
			c-0.003,0.001-0.007,0.002-0.01,0.004c-0.006,0.002-0.011,0.004-0.017,0.006c-0.003,0.001-0.006,0.002-0.01,0.003
			c-0.008,0.003-0.016,0.006-0.024,0.008c-0.003,0.001-0.005,0.002-0.007,0.002c-0.006,0.002-0.013,0.004-0.019,0.006
			c-0.003,0.001-0.007,0.002-0.009,0.003c-0.008,0.003-0.017,0.006-0.025,0.009l-0.001,0c-0.009,0.003-0.017,0.006-0.026,0.009
			c-0.003,0.001-0.005,0.002-0.007,0.003c-0.008,0.003-0.016,0.005-0.023,0.008c-0.001,0-0.002,0.001-0.003,0.001
			c-0.009,0.003-0.018,0.006-0.027,0.009c-0.002,0.001-0.004,0.002-0.006,0.002c-0.008,0.003-0.015,0.005-0.023,0.008
			c-0.001,0-0.003,0.001-0.004,0.001c-0.009,0.003-0.019,0.006-0.028,0.01c-0.001,0,0,0-0.001,0
			c-0.009,0.003-0.018,0.006-0.027,0.009c-0.001,0-0.002,0.001-0.003,0.001c-0.758,0.265-1.5,0.562-2.227,0.888l0.818,1.825
			c1.128-0.506,2.301-0.935,3.488-1.277L21.603,2.108L21.603,2.108z M14.327,5.37c-0.693,0.436-1.365,0.902-2.015,1.394
			c-0.001,0.001-0.002,0.001-0.002,0.002c-0.016,0.012-0.033,0.025-0.05,0.038c0,0,0,0-0.001,0
			c-0.016,0.012-0.033,0.025-0.049,0.038c-0.001,0.001-0.002,0.001-0.002,0.002c-0.016,0.012-0.032,0.024-0.047,0.036
			c-0.001,0.001-0.003,0.002-0.004,0.003c-0.005,0.004-0.01,0.008-0.015,0.012c0,0-0.001,0.001-0.001,0.001
			c-0.01,0.008-0.02,0.016-0.03,0.023c-0.001,0.001-0.002,0.002-0.004,0.003c-0.005,0.004-0.011,0.008-0.016,0.012c0,0,0,0,0,0
			c-0.011,0.008-0.021,0.017-0.032,0.025c-0.001,0.001-0.001,0.001-0.002,0.002c-0.005,0.004-0.01,0.007-0.015,0.011
			c-0.002,0.001-0.004,0.003-0.006,0.004c-0.009,0.007-0.018,0.014-0.027,0.021C12.007,6.998,12.006,6.999,12.005,7
			C12,7.004,11.996,7.007,11.991,7.011c-0.002,0.001-0.004,0.003-0.006,0.004c-0.009,0.007-0.019,0.015-0.029,0.022
			c-0.001,0-0.001,0.001-0.002,0.002c-0.004,0.003-0.008,0.007-0.013,0.01c-0.003,0.002-0.005,0.004-0.008,0.006
			c-0.004,0.003-0.009,0.007-0.013,0.01c0,0,0,0,0,0c-0.01,0.008-0.019,0.015-0.029,0.023c-0.002,0.002-0.005,0.004-0.007,0.005
			c-0.005,0.004-0.009,0.007-0.013,0.011c-0.002,0.001-0.004,0.003-0.005,0.004c-0.008,0.006-0.016,0.012-0.023,0.019
			c-0.003,0.002-0.005,0.004-0.008,0.006c-0.004,0.003-0.008,0.007-0.013,0.01c-0.003,0.002-0.005,0.004-0.008,0.006
			c-0.007,0.006-0.013,0.01-0.02,0.016c-0.003,0.003-0.007,0.005-0.01,0.008c-0.004,0.003-0.007,0.006-0.011,0.009
			c-0.004,0.003-0.008,0.006-0.011,0.009c-0.005,0.004-0.01,0.008-0.015,0.012c-0.004,0.003-0.008,0.007-0.013,0.01
			c-0.003,0.003-0.007,0.006-0.011,0.009c-0.004,0.003-0.007,0.006-0.011,0.009c-0.004,0.003-0.007,0.005-0.011,0.009
			c-0.006,0.004-0.011,0.009-0.017,0.013c-0.003,0.003-0.007,0.006-0.011,0.009c-0.004,0.003-0.008,0.006-0.011,0.009
			c-0.003,0.003-0.006,0.005-0.009,0.007c-0.006,0.005-0.013,0.01-0.019,0.015c-0.002,0.002-0.006,0.004-0.008,0.006
			c-0.005,0.004-0.009,0.008-0.014,0.011c-0.003,0.002-0.005,0.004-0.008,0.006c-0.006,0.005-0.013,0.01-0.019,0.015
			c-0.003,0.002-0.006,0.004-0.008,0.007c-0.005,0.004-0.009,0.007-0.014,0.011c-0.003,0.002-0.005,0.004-0.008,0.007
			c-0.007,0.005-0.013,0.011-0.02,0.016c-0.002,0.002-0.004,0.003-0.006,0.005c-0.005,0.004-0.01,0.008-0.015,0.012
			c-0.003,0.002-0.005,0.004-0.007,0.006c-0.006,0.005-0.011,0.009-0.017,0.014c-0.003,0.002-0.006,0.005-0.008,0.007
			c-0.006,0.005-0.011,0.009-0.017,0.014c-0.002,0.002-0.005,0.004-0.007,0.006c-0.006,0.005-0.012,0.01-0.018,0.015
			c-0.001,0.001-0.002,0.001-0.003,0.003c-0.007,0.006-0.014,0.012-0.021,0.017c-0.002,0.002-0.004,0.003-0.006,0.005
			C11.405,7.48,11.4,7.485,11.394,7.49c-0.001,0.001-0.003,0.002-0.004,0.004c-0.007,0.006-0.014,0.012-0.022,0.018
			c-0.001,0.001-0.003,0.002-0.003,0.003c-0.006,0.005-0.013,0.01-0.019,0.016c-0.001,0.001-0.003,0.002-0.004,0.003
			c-0.007,0.006-0.014,0.012-0.022,0.018c-0.001,0.001-0.002,0.001-0.003,0.003c-0.006,0.005-0.013,0.01-0.019,0.016
			c-0.001,0.001-0.004,0.003-0.005,0.004c-0.007,0.006-0.014,0.012-0.021,0.018c-0.001,0.001-0.001,0.001-0.002,0.002
			c-0.007,0.006-0.014,0.012-0.021,0.017c-0.001,0.001-0.002,0.002-0.003,0.003c-0.015,0.012-0.03,0.025-0.045,0.037
			c-0.001,0.001-0.002,0.002-0.004,0.003c-0.015,0.013-0.03,0.025-0.045,0.038c-0.001,0.001-0.002,0.002-0.003,0.002
			c-0.015,0.013-0.03,0.026-0.046,0.039c-0.001,0.001,0,0-0.001,0.001l1.292,1.527c0.945-0.799,1.954-1.538,2.999-2.197L14.327,5.37
			L14.327,5.37z M8.239,10.52c-0.316,0.353-0.622,0.714-0.92,1.083c0,0,0,0.001-0.001,0.001c-0.013,0.016-0.025,0.032-0.038,0.048
			c-0.001,0.001-0.002,0.002-0.002,0.003c-0.004,0.005-0.008,0.01-0.012,0.015c-0.001,0.001-0.001,0.002-0.002,0.002
			c-0.007,0.008-0.014,0.018-0.021,0.026c-0.002,0.002-0.004,0.005-0.006,0.007c-0.003,0.004-0.006,0.008-0.01,0.012
			c-0.002,0.003-0.005,0.006-0.008,0.009c-0.004,0.006-0.009,0.011-0.013,0.016c-0.003,0.004-0.007,0.008-0.01,0.012
			c-0.003,0.004-0.005,0.007-0.008,0.01c-0.004,0.004-0.007,0.009-0.011,0.013c-0.002,0.003-0.004,0.005-0.006,0.008
			c-0.005,0.006-0.01,0.013-0.016,0.02c-0.002,0.003-0.004,0.005-0.006,0.008c-0.004,0.005-0.008,0.01-0.012,0.016
			c-0.002,0.002-0.003,0.004-0.004,0.006c-0.005,0.007-0.011,0.014-0.016,0.021c-0.002,0.002-0.003,0.004-0.005,0.006
			c-0.005,0.006-0.009,0.012-0.014,0.018c-0.002,0.002-0.002,0.002-0.003,0.004c-0.006,0.008-0.012,0.015-0.018,0.023
			c-0.001,0.001-0.001,0.001-0.001,0.002c-0.006,0.007-0.011,0.015-0.017,0.022c-0.001,0.001-0.001,0.001-0.002,0.002
			c-0.012,0.016-0.025,0.032-0.037,0.047c-0.001,0.001-0.001,0.001-0.001,0.002c-0.012,0.016-0.025,0.032-0.037,0.048L6.98,12.031
			c-0.013,0.016-0.025,0.033-0.038,0.049l0,0c-0.28,0.362-0.552,0.731-0.815,1.107l-0.001,0.001
			c-0.011,0.016-0.023,0.032-0.034,0.049c-0.001,0.001-0.002,0.003-0.003,0.004c-0.005,0.008-0.011,0.016-0.016,0.024
			c0,0.001,0,0.001-0.001,0.001c-0.005,0.007-0.01,0.015-0.015,0.022c-0.001,0.001-0.003,0.004-0.004,0.006
			c-0.005,0.007-0.009,0.013-0.014,0.02c-0.001,0.001-0.001,0.002-0.002,0.004c-0.005,0.007-0.01,0.015-0.015,0.022
			c-0.002,0.002-0.004,0.005-0.005,0.008c-0.004,0.005-0.007,0.01-0.011,0.015C6.004,13.365,6.002,13.368,6,13.371
			c-0.004,0.006-0.009,0.013-0.013,0.019c-0.003,0.004-0.005,0.007-0.008,0.011c-0.002,0.004-0.005,0.007-0.007,0.011
			c-0.003,0.004-0.005,0.008-0.008,0.012c-0.004,0.006-0.008,0.012-0.012,0.018c-0.003,0.004-0.006,0.009-0.009,0.014
			c-0.002,0.002-0.003,0.005-0.005,0.007c-0.011,0.016-0.021,0.031-0.032,0.047c-0.001,0.002-0.002,0.003-0.003,0.005
			c-0.037,0.055-0.074,0.11-0.111,0.165l1.663,1.112c0.687-1.027,1.453-2.016,2.277-2.938L8.239,10.52L8.239,10.52z M3.808,17.149
			c-0.074,0.153-0.147,0.308-0.218,0.463c-0.001,0.001-0.001,0.002-0.002,0.004c-0.008,0.018-0.017,0.036-0.025,0.054
			c-0.001,0.002-0.001,0.003-0.002,0.005c-0.002,0.005-0.005,0.012-0.008,0.017c-0.001,0.002-0.002,0.004-0.003,0.006
			c-0.004,0.009-0.009,0.019-0.013,0.028c-0.001,0.003-0.003,0.006-0.004,0.009c-0.002,0.004-0.004,0.009-0.006,0.013
			c-0.002,0.004-0.004,0.008-0.006,0.013c-0.002,0.005-0.004,0.008-0.006,0.013c-0.003,0.007-0.006,0.013-0.009,0.019
			c-0.002,0.004-0.003,0.008-0.005,0.012c-0.002,0.004-0.004,0.008-0.006,0.013c-0.002,0.004-0.004,0.008-0.006,0.012
			c-0.003,0.007-0.006,0.014-0.01,0.021c-0.002,0.004-0.003,0.007-0.005,0.011c-0.002,0.005-0.004,0.009-0.006,0.014
			c-0.002,0.004-0.003,0.007-0.005,0.011c-0.003,0.007-0.006,0.014-0.009,0.021c-0.001,0.003-0.003,0.006-0.004,0.009
			c-0.003,0.006-0.005,0.011-0.008,0.017c-0.001,0.003-0.003,0.007-0.005,0.01c-0.003,0.006-0.005,0.012-0.008,0.018
			c-0.001,0.003-0.002,0.005-0.004,0.008c-0.003,0.007-0.006,0.014-0.009,0.021c-0.001,0.003-0.003,0.006-0.004,0.01
			c-0.003,0.006-0.005,0.012-0.008,0.018c-0.001,0.002-0.002,0.005-0.003,0.008c-0.003,0.008-0.007,0.016-0.01,0.024
			c-0.001,0.003-0.003,0.006-0.004,0.008c-0.003,0.006-0.006,0.013-0.008,0.019c-0.001,0.002-0.002,0.005-0.003,0.006
			c-0.004,0.008-0.007,0.017-0.011,0.025c-0.001,0.003-0.002,0.004-0.003,0.006c-0.003,0.007-0.006,0.013-0.009,0.02
			c-0.001,0.003-0.002,0.005-0.003,0.007c-0.004,0.008-0.007,0.017-0.011,0.025c0,0.001,0,0-0.001,0.001
			c-0.004,0.008-0.007,0.016-0.011,0.024C3.33,18.196,3.329,18.197,3.328,18.2c-0.003,0.007-0.006,0.015-0.01,0.022
			c0,0.001-0.001,0.003-0.002,0.004c-0.004,0.009-0.007,0.017-0.011,0.026c-0.001,0.002-0.001,0.003-0.002,0.005
			c-0.003,0.007-0.006,0.015-0.01,0.022c-0.001,0.002-0.002,0.004-0.002,0.005c-0.004,0.009-0.007,0.017-0.011,0.026
			c0,0.001-0.001,0.002-0.001,0.003c-0.003,0.008-0.007,0.016-0.01,0.024c-0.001,0.002-0.002,0.004-0.002,0.005
			c-0.007,0.018-0.015,0.035-0.022,0.053c-0.001,0.002-0.001,0.003-0.002,0.005c-0.008,0.018-0.015,0.035-0.022,0.053
			c-0.001,0.002-0.001,0.004-0.002,0.005c-0.003,0.008-0.007,0.016-0.01,0.024c0,0.001-0.001,0.002-0.001,0.003
			c-0.004,0.009-0.007,0.017-0.011,0.026c-0.001,0.003-0.002,0.004-0.003,0.007c-0.003,0.007-0.006,0.014-0.009,0.021
			c-0.001,0.002-0.002,0.004-0.002,0.006c-0.004,0.009-0.007,0.017-0.011,0.026c0,0.001-0.001,0.002-0.001,0.003
			c-0.003,0.008-0.006,0.016-0.01,0.023c-0.001,0.003-0.001,0.003-0.002,0.006c-0.004,0.009-0.007,0.017-0.011,0.026l0,0.001
			c-0.003,0.008-0.007,0.017-0.01,0.025c-0.001,0.002-0.002,0.004-0.002,0.006c-0.003,0.008-0.006,0.015-0.009,0.023
			c0,0.001-0.001,0.003-0.001,0.004c-0.004,0.009-0.007,0.017-0.011,0.026c-0.001,0.002-0.002,0.004-0.002,0.006
			c-0.003,0.007-0.006,0.014-0.009,0.021c-0.001,0.003-0.002,0.004-0.003,0.007c-0.003,0.008-0.007,0.017-0.01,0.025
			c-0.001,0.002-0.002,0.004-0.002,0.005c-0.003,0.007-0.006,0.014-0.008,0.021c-0.001,0.003-0.002,0.005-0.003,0.007
			c-0.003,0.008-0.007,0.017-0.01,0.025c-0.001,0.002-0.001,0.003-0.002,0.005c-0.003,0.007-0.006,0.014-0.008,0.021
			c-0.001,0.003-0.002,0.005-0.003,0.009c-0.003,0.007-0.006,0.015-0.009,0.022c0,0.001-0.001,0.002-0.001,0.003
			c-0.003,0.008-0.007,0.016-0.01,0.025c-0.001,0.003-0.003,0.007-0.004,0.009c-0.002,0.006-0.005,0.012-0.007,0.018
			c-0.001,0.003-0.002,0.005-0.003,0.008c-0.003,0.008-0.006,0.016-0.009,0.024c-0.001,0.003-0.003,0.007-0.004,0.009
			C3.002,18.986,3,18.992,2.997,18.998c-0.001,0.003-0.002,0.005-0.003,0.009c-0.003,0.008-0.006,0.016-0.01,0.024
			c-0.001,0.003-0.001,0.004-0.002,0.006c-0.003,0.007-0.005,0.013-0.008,0.02c-0.001,0.003-0.002,0.006-0.003,0.008
			c-0.003,0.007-0.005,0.014-0.008,0.021c-0.001,0.003-0.003,0.006-0.004,0.01c-0.002,0.006-0.005,0.013-0.008,0.019
			c-0.001,0.003-0.002,0.006-0.004,0.01c-0.002,0.006-0.005,0.012-0.007,0.018c-0.001,0.003-0.002,0.005-0.003,0.008
			c-0.003,0.008-0.006,0.016-0.009,0.023c-0.001,0.003-0.003,0.007-0.004,0.01C2.922,19.19,2.92,19.195,2.918,19.2
			c-0.001,0.003-0.002,0.006-0.004,0.01c-0.003,0.008-0.006,0.016-0.009,0.023c-0.001,0.003-0.003,0.007-0.004,0.009
			c-0.002,0.005-0.004,0.011-0.006,0.016c-0.001,0.003-0.003,0.007-0.004,0.01c-0.003,0.008-0.006,0.016-0.009,0.024
			C2.881,19.296,2.881,19.297,2.88,19.3c-0.002,0.006-0.005,0.013-0.007,0.019c-0.001,0.003-0.003,0.007-0.004,0.01
			c-0.002,0.006-0.005,0.013-0.007,0.019c-0.001,0.002-0.002,0.005-0.003,0.007c-0.003,0.008-0.006,0.016-0.009,0.024
			c-0.001,0.003-0.002,0.006-0.003,0.008c-0.002,0.006-0.005,0.012-0.007,0.019c-0.001,0.003-0.002,0.005-0.003,0.008
			c-0.003,0.008-0.006,0.016-0.009,0.024c-0.001,0.003-0.002,0.006-0.004,0.01c-0.002,0.006-0.004,0.011-0.006,0.017
			c-0.001,0.003-0.002,0.006-0.003,0.009c-0.003,0.008-0.006,0.016-0.009,0.025c-0.001,0.002-0.002,0.004-0.002,0.006
			c-0.003,0.007-0.005,0.014-0.008,0.021c-0.001,0.003-0.002,0.004-0.003,0.007c-0.003,0.008-0.006,0.017-0.009,0.025
			c0,0.001-0.001,0.002-0.001,0.003c-0.003,0.008-0.006,0.016-0.009,0.024c-0.001,0.003-0.002,0.004-0.003,0.007
			c-0.003,0.008-0.006,0.016-0.009,0.023c0,0.001-0.001,0.002-0.001,0.003c-0.003,0.009-0.007,0.018-0.01,0.027
			c-0.001,0.002-0.001,0.004-0.002,0.005c-0.003,0.008-0.006,0.015-0.008,0.023c-0.001,0.002-0.001,0.003-0.002,0.005
			c-0.003,0.009-0.007,0.018-0.01,0.028c0,0.001,0,0,0,0.001c-0.003,0.009-0.006,0.018-0.01,0.026
			c-0.001,0.002-0.001,0.002-0.001,0.004c-0.007,0.018-0.013,0.037-0.02,0.055c-0.001,0.002-0.001,0.003-0.002,0.005
			c-0.007,0.018-0.013,0.037-0.02,0.055c0,0.001-0.001,0.002-0.001,0.003c-0.007,0.019-0.014,0.038-0.02,0.057
			c0,0.001,0,0.001-0.001,0.002c-0.003,0.009-0.007,0.019-0.01,0.028l0,0c-0.109,0.305-0.212,0.613-0.311,0.923l1.906,0.605
			c0.374-1.177,0.835-2.338,1.372-3.452L3.808,17.149L3.808,17.149z M1.394,24.749c-0.057,0.341-0.109,0.686-0.154,1.031
			c0,0.001,0,0.001,0,0.002c-0.001,0.007-0.002,0.013-0.003,0.02c0,0.002,0,0.004-0.001,0.005c-0.003,0.019-0.005,0.037-0.007,0.057
			c0,0.004-0.001,0.007-0.001,0.011c-0.001,0.006-0.001,0.01-0.002,0.015c0,0.004-0.001,0.007-0.001,0.011
			c-0.001,0.008-0.002,0.017-0.003,0.025c-0.001,0.004-0.001,0.009-0.002,0.013c-0.001,0.005-0.001,0.009-0.002,0.014
			c-0.001,0.004-0.001,0.009-0.002,0.013c-0.001,0.005-0.001,0.01-0.002,0.015c-0.001,0.005-0.001,0.01-0.002,0.015
			c-0.001,0.007-0.002,0.013-0.002,0.02C1.21,26.02,1.21,26.025,1.209,26.03c-0.001,0.005-0.001,0.007-0.001,0.012
			c-0.001,0.006-0.001,0.012-0.002,0.017c0,0.004-0.001,0.006-0.001,0.01c-0.001,0.008-0.002,0.017-0.003,0.025
			c0,0.003-0.001,0.007-0.001,0.01c-0.001,0.006-0.001,0.012-0.002,0.018c0,0.003-0.001,0.007-0.001,0.01
			c-0.001,0.007-0.002,0.015-0.003,0.022c0,0.003,0,0.004-0.001,0.007c-0.001,0.008-0.002,0.017-0.003,0.025
			c0,0.003-0.001,0.006-0.001,0.009c-0.001,0.007-0.002,0.013-0.002,0.02c0,0.003-0.001,0.005-0.001,0.008
			c-0.001,0.009-0.002,0.018-0.003,0.027c0,0.001,0,0.004-0.001,0.005c-0.001,0.008-0.002,0.015-0.003,0.023
			c0,0.003-0.001,0.006-0.001,0.008c-0.001,0.008-0.002,0.017-0.003,0.025c0,0.001,0,0.001,0,0.002
			c-0.001,0.009-0.002,0.019-0.003,0.028c0,0.003,0,0.004-0.001,0.006c-0.001,0.008-0.002,0.016-0.003,0.023
			c0,0.002,0,0.004-0.001,0.006c-0.002,0.019-0.004,0.038-0.006,0.058c0,0.001,0,0.004-0.001,0.005
			C1.161,26.45,1.16,26.458,1.16,26.466c0,0.002,0,0.002,0,0.004c-0.001,0.01-0.002,0.02-0.003,0.03c0,0.001,0-0.001,0,0
			c-0.001,0.01-0.002,0.019-0.003,0.029c0,0.001,0,0.003,0,0.004c-0.002,0.02-0.004,0.04-0.006,0.06l0,0.001
			c-0.001,0.01-0.002,0.02-0.003,0.03l0,0c-0.002,0.02-0.004,0.041-0.006,0.061c0,0.001,0,0.001,0,0.002
			c-0.003,0.03-0.006,0.061-0.009,0.091l0,0.001c-0.002,0.02-0.004,0.041-0.006,0.061l0,0.002c-0.008,0.083-0.015,0.165-0.022,0.248
			l0,0.001c-0.003,0.031-0.005,0.061-0.008,0.092c0,0.001,0,0.001,0,0.002c-0.002,0.02-0.003,0.041-0.005,0.061l0,0.001
			c-0.002,0.031-0.005,0.061-0.007,0.092l0,0.001c-0.002,0.021-0.003,0.041-0.005,0.062l0,0c-0.001,0.01-0.001,0.02-0.002,0.03
			c0,0.001,0,0.001,0,0.002c-0.001,0.02-0.003,0.041-0.004,0.061c0,0.001,0,0.001,0,0.002c-0.001,0.021-0.003,0.041-0.004,0.061v0
			c-0.001,0.01-0.001,0.02-0.002,0.029c0,0.001,0,0.002,0,0.003c-0.001,0.02-0.003,0.04-0.004,0.06c0,0.001,0,0.001,0,0.002
			c-0.001,0.009-0.001,0.019-0.002,0.028c0,0.001,0,0.001,0,0.002c-0.001,0.01-0.001,0.02-0.002,0.03l0,0
			c-0.001,0.01-0.001,0.02-0.002,0.03c0,0.002,0,0.001,0,0.003c-0.001,0.02-0.002,0.04-0.004,0.061c0,0.001,0,0.001,0,0.002
			c-0.001,0.009-0.001,0.018-0.002,0.027c0,0.002,0,0.002,0,0.004c-0.001,0.019-0.002,0.039-0.003,0.058c0,0.003,0,0.003,0,0.006
			c0,0.008-0.001,0.017-0.001,0.025c0,0.002,0,0.002,0,0.004c-0.001,0.01-0.001,0.019-0.002,0.029c0,0.002,0,0.003,0,0.005
			c0,0.008-0.001,0.016-0.001,0.024c0,0.003,0,0.004,0,0.007c-0.001,0.019-0.002,0.039-0.003,0.058c0,0.002,0,0.004,0,0.006
			c0,0.008-0.001,0.015-0.001,0.023c0,0.003,0,0.005,0,0.008c0,0.009-0.001,0.019-0.001,0.028c0,0.002,0,0.002,0,0.004
			c0,0.008-0.001,0.016-0.001,0.024c0,0.003,0,0.006,0,0.009c0,0.007-0.001,0.015-0.001,0.022c0,0.002,0,0.005,0,0.007
			c0,0.009-0.001,0.018-0.001,0.027c0,0.003,0,0.007,0,0.01c0,0.006-0.001,0.013-0.001,0.019c0,0.003,0,0.007,0,0.01
			c0,0.007-0.001,0.015-0.001,0.022c0,0.004,0,0.007,0,0.011c0,0.007-0.001,0.015-0.001,0.022c0,0.003,0,0.008,0,0.011
			c0,0.006,0,0.011-0.001,0.017c0,0.004,0,0.008,0,0.011c0,0.009-0.001,0.017-0.001,0.026c0,0.004,0,0.005,0,0.009
			c0,0.006,0,0.013-0.001,0.019c0,0.004,0,0.007,0,0.011c0,0.006,0,0.013-0.001,0.019c0,0.003,0,0.006,0,0.009
			c0,0.008-0.001,0.016-0.001,0.025c0,0.004,0,0.01,0,0.014c0,0.005,0,0.01,0,0.014c0,0.004,0,0.01,0,0.014
			c0,0.005,0,0.01-0.001,0.016c0,0.008,0,0.015-0.001,0.022c0,0.004,0,0.009,0,0.013c0,0.005,0,0.01,0,0.014
			c0,0.004,0,0.009,0,0.013c0,0.01-0.001,0.021-0.001,0.03c0,0.002,0,0.005,0,0.008c0,0.006,0,0.011-0.001,0.017
			c0,0.003,0,0.007,0,0.01c0,0.006,0,0.011,0,0.017c0,0.003,0,0.006,0,0.009c0,0.011-0.001,0.023-0.001,0.034
			c0,0.002,0,0.004,0,0.006c0,0.003,0,0.005,0,0.007L3.01,28.78c0.033-1.24,0.153-2.485,0.357-3.701L1.394,24.749L1.394,24.749z
			 M3.167,32.497L1.18,32.721c0.151,1.341,0.395,2.653,0.725,3.93l1.936-0.5C3.532,34.957,3.306,33.727,3.167,32.497L3.167,32.497z
			 M5.022,39.672L3.176,40.44c0.181,0.435,0.372,0.864,0.574,1.287c0,0.001,0.001,0.001,0.001,0.002
			c0.008,0.018,0.017,0.036,0.026,0.054c0.001,0.002,0.001,0.003,0.002,0.005c0.003,0.007,0.007,0.014,0.01,0.021
			c0.001,0.002,0.002,0.004,0.003,0.005c0.004,0.008,0.008,0.016,0.012,0.025c0.001,0.002,0.002,0.003,0.003,0.006
			c0.003,0.007,0.006,0.013,0.01,0.02c0.001,0.002,0.002,0.004,0.003,0.007c0.004,0.008,0.008,0.016,0.011,0.023
			c0.002,0.003,0.003,0.006,0.005,0.01c0.002,0.005,0.004,0.009,0.007,0.014c0.002,0.004,0.004,0.008,0.006,0.012
			c0.002,0.005,0.005,0.009,0.007,0.014c0.003,0.006,0.006,0.013,0.009,0.019c0.002,0.004,0.004,0.007,0.005,0.011
			c0.002,0.005,0.004,0.009,0.007,0.014c0.001,0.003,0.003,0.006,0.004,0.009c0.005,0.01,0.01,0.02,0.014,0.029
			c0.001,0.001,0.001,0.002,0.002,0.004c0.003,0.006,0.006,0.012,0.008,0.017c0.001,0.002,0.001,0.003,0.002,0.005
			c0.009,0.018,0.018,0.036,0.027,0.054c0,0.001,0.001,0.002,0.001,0.003c0.009,0.019,0.019,0.038,0.028,0.056c0,0,0,0,0,0.001
			c0.311,0.625,0.643,1.237,0.998,1.835c0,0,0,0,0,0c0.002,0.004,0.004,0.007,0.007,0.011l1.72-1.02
			C6.056,41.929,5.496,40.812,5.022,39.672L5.022,39.672z M8.802,46.05L7.241,47.3c0.061,0.077,0.123,0.153,0.185,0.228
			c0.001,0.001,0.001,0.002,0.002,0.003c0.012,0.014,0.025,0.03,0.037,0.045c0.002,0.002,0.004,0.005,0.006,0.007
			c0.003,0.004,0.007,0.009,0.01,0.013c0.005,0.006,0.009,0.011,0.014,0.017c0.003,0.003,0.005,0.006,0.008,0.01
			c0.003,0.004,0.007,0.008,0.01,0.012c0.002,0.003,0.005,0.006,0.008,0.009c0.005,0.006,0.01,0.012,0.015,0.018
			c0.003,0.003,0.005,0.007,0.008,0.01c0.003,0.004,0.006,0.008,0.009,0.011c0.003,0.003,0.005,0.006,0.008,0.01
			c0.004,0.005,0.009,0.011,0.013,0.016c0.003,0.003,0.005,0.006,0.008,0.009c0.004,0.005,0.008,0.01,0.012,0.015
			c0.002,0.003,0.004,0.005,0.006,0.008c0.006,0.007,0.011,0.013,0.017,0.02l0,0c0.006,0.007,0.012,0.014,0.017,0.021
			c0.002,0.002,0.004,0.004,0.005,0.007c0.005,0.006,0.01,0.012,0.015,0.018c0.001,0.001,0.002,0.002,0.003,0.003
			c0.006,0.007,0.012,0.014,0.018,0.021c0.001,0.001,0.003,0.004,0.004,0.005c0.005,0.006,0.01,0.012,0.015,0.018
			c0.001,0.001,0.002,0.002,0.003,0.003c0.006,0.007,0.012,0.014,0.018,0.021c0.002,0.002,0.002,0.002,0.004,0.004
			c0.005,0.006,0.011,0.013,0.016,0.019c0.001,0.001,0.002,0.002,0.003,0.004c0.006,0.007,0.012,0.014,0.018,0.022
			c0.001,0.001,0.002,0.002,0.003,0.004c0.005,0.006,0.011,0.012,0.016,0.019c0.001,0.001,0.002,0.003,0.003,0.004
			c0.006,0.007,0.012,0.014,0.018,0.022C7.798,47.975,7.8,47.977,7.8,47.977c0.005,0.006,0.011,0.013,0.016,0.019
			C7.818,47.998,7.819,47.999,7.82,48c0.012,0.015,0.025,0.029,0.038,0.044c0.001,0.001,0.002,0.002,0.003,0.004
			c0.013,0.015,0.025,0.029,0.038,0.044c0.001,0.001,0.002,0.002,0.003,0.004c0.013,0.015,0.025,0.03,0.038,0.044
			c0.001,0.001,0.001,0.001,0.002,0.003c0.006,0.007,0.012,0.014,0.018,0.021c0.001,0.001,0.001,0.002,0.002,0.002
			c0.006,0.007,0.013,0.015,0.019,0.022c0.001,0.001,0.002,0.002,0.003,0.003c0.006,0.007,0.012,0.013,0.017,0.02
			c0.001,0.001,0.002,0.002,0.002,0.003c0.006,0.007,0.013,0.015,0.019,0.022c0.001,0.001,0.001,0.002,0.003,0.003
			c0.006,0.006,0.011,0.013,0.017,0.019c0.001,0.001,0.003,0.003,0.004,0.004c0.006,0.007,0.012,0.014,0.019,0.021
			c0.001,0.001,0.001,0.001,0.002,0.002c0.006,0.006,0.011,0.013,0.017,0.019c0.002,0.002,0.003,0.003,0.005,0.005
			c0.006,0.007,0.012,0.014,0.018,0.021c0.001,0.001,0.001,0.002,0.002,0.002c0.005,0.006,0.011,0.012,0.016,0.018
			c0.002,0.002,0.004,0.004,0.006,0.006c0.006,0.007,0.012,0.013,0.018,0.02l0,0c0.006,0.007,0.012,0.014,0.018,0.021
			c0.002,0.002,0.003,0.003,0.005,0.005c0.006,0.006,0.011,0.012,0.017,0.019c0.001,0.001,0.001,0.001,0.002,0.003
			c0.006,0.007,0.012,0.013,0.018,0.02c0.002,0.002,0.004,0.005,0.006,0.007c0.005,0.005,0.009,0.01,0.014,0.016
			c0.001,0.001,0.003,0.004,0.004,0.005c0.006,0.006,0.011,0.013,0.017,0.019c0.002,0.003,0.005,0.005,0.007,0.008
			c0.004,0.004,0.008,0.009,0.012,0.013c0.002,0.002,0.005,0.005,0.006,0.007c0.006,0.006,0.011,0.013,0.017,0.019
			c0.002,0.002,0.005,0.005,0.007,0.007c0.004,0.004,0.008,0.009,0.012,0.013c0.002,0.003,0.005,0.005,0.007,0.008
			c0.006,0.006,0.011,0.012,0.016,0.018c0.002,0.003,0.005,0.005,0.007,0.008c0.004,0.004,0.008,0.008,0.011,0.013
			c0.003,0.003,0.005,0.005,0.008,0.009c0.004,0.004,0.008,0.009,0.012,0.013c0.004,0.004,0.008,0.009,0.012,0.013
			c0.003,0.004,0.007,0.007,0.01,0.011c0.002,0.003,0.006,0.006,0.008,0.009c0.004,0.004,0.007,0.008,0.011,0.012
			c0.005,0.005,0.009,0.01,0.014,0.015c0.003,0.003,0.006,0.007,0.009,0.01c0.004,0.004,0.007,0.007,0.01,0.011
			c0.002,0.002,0.004,0.005,0.006,0.007c0.007,0.008,0.014,0.016,0.021,0.023c0.001,0.001,0.003,0.003,0.004,0.004
			c0.004,0.005,0.008,0.008,0.012,0.013c0.002,0.002,0.003,0.004,0.005,0.006c0.013,0.014,0.026,0.029,0.039,0.043
			c0.001,0.001,0.002,0.002,0.002,0.003c0.013,0.014,0.028,0.03,0.041,0.045c0.001,0.001,0.001,0.001,0.002,0.002
			c0.442,0.478,0.899,0.939,1.373,1.386l1.372-1.455C10.423,47.935,9.575,47.015,8.802,46.05L8.802,46.05z M14.199,51.139
			l-1.156,1.632c0.265,0.188,0.535,0.372,0.807,0.551c0.001,0.001,0.002,0.001,0.003,0.002c0.016,0.011,0.034,0.022,0.05,0.033
			c0.001,0.001,0.002,0.001,0.003,0.002c0.016,0.011,0.033,0.021,0.049,0.032c0.002,0.001,0.004,0.002,0.005,0.004
			c0.016,0.01,0.031,0.02,0.047,0.03c0.002,0.002,0.005,0.003,0.007,0.005c0.005,0.003,0.009,0.006,0.014,0.009
			c0.003,0.002,0.006,0.004,0.009,0.006c0.008,0.005,0.014,0.009,0.021,0.014c0.003,0.002,0.007,0.004,0.01,0.007
			c0.005,0.003,0.008,0.005,0.012,0.008c0.004,0.002,0.008,0.005,0.012,0.007c0.005,0.003,0.01,0.006,0.015,0.01
			c0.005,0.003,0.01,0.006,0.015,0.01c0.004,0.002,0.006,0.004,0.01,0.007c0.005,0.003,0.01,0.006,0.015,0.009
			c0.003,0.002,0.005,0.003,0.008,0.005c0.007,0.004,0.014,0.009,0.021,0.013c0.003,0.002,0.007,0.004,0.01,0.006
			c0.005,0.003,0.009,0.006,0.014,0.009c0.002,0.001,0.006,0.004,0.008,0.005c0.007,0.004,0.014,0.009,0.021,0.013
			c0.004,0.002,0.006,0.004,0.009,0.006c0.005,0.003,0.009,0.006,0.014,0.009c0.003,0.002,0.007,0.004,0.01,0.006
			c0.007,0.004,0.014,0.009,0.02,0.013c0.003,0.002,0.006,0.004,0.009,0.006c0.005,0.003,0.009,0.006,0.014,0.009
			c0.004,0.002,0.006,0.004,0.01,0.006c0.006,0.004,0.012,0.007,0.017,0.011c0.004,0.002,0.007,0.004,0.01,0.007
			c0.005,0.003,0.011,0.007,0.017,0.01c0.003,0.002,0.006,0.004,0.009,0.006c0.006,0.003,0.011,0.007,0.017,0.01
			c0.002,0.001,0.005,0.003,0.007,0.005c0.007,0.004,0.014,0.009,0.021,0.013c0.002,0.001,0.006,0.004,0.008,0.005
			c0.006,0.004,0.012,0.007,0.017,0.011c0.002,0.001,0.004,0.003,0.007,0.004c0.007,0.005,0.015,0.009,0.022,0.014
			c0.003,0.002,0.005,0.003,0.008,0.005c0.006,0.003,0.011,0.007,0.017,0.01c0.002,0.001,0.005,0.003,0.007,0.005
			c0.007,0.005,0.015,0.009,0.022,0.014c0.002,0.001,0.004,0.002,0.006,0.004c0.006,0.004,0.012,0.008,0.019,0.012
			c0.002,0.001,0.004,0.003,0.006,0.004c0.008,0.005,0.016,0.01,0.024,0.015c0.001,0,0.001,0.001,0.002,0.001
			c0.007,0.004,0.014,0.009,0.022,0.013c0.002,0.001,0.004,0.002,0.006,0.004c0.008,0.005,0.016,0.01,0.024,0.015
			c0.001,0,0,0,0.001,0.001c0.008,0.005,0.016,0.01,0.023,0.014c0.002,0.001,0.004,0.002,0.005,0.003
			c0.008,0.005,0.016,0.01,0.024,0.015c0.001,0-0.001,0,0,0c0.008,0.005,0.017,0.01,0.025,0.015
			c0.002,0.001,0.002,0.001,0.004,0.002c0.008,0.005,0.016,0.01,0.024,0.015l0.001,0c0.009,0.005,0.017,0.01,0.026,0.016
			c0.001,0,0.002,0.001,0.002,0.001c0.008,0.005,0.016,0.01,0.025,0.015l0.001,0.001c0.009,0.005,0.017,0.01,0.026,0.016
			l0.001,0.001c0.008,0.005,0.017,0.01,0.025,0.015c0.001,0,0,0,0.001,0.001c0.018,0.011,0.035,0.021,0.053,0.032
			c0.001,0,0,0,0.001,0.001c0.51,0.305,1.03,0.594,1.559,0.867l0.917-1.778C16.277,52.504,15.208,51.854,14.199,51.139
			L14.199,51.139z M20.787,54.535l-0.657,1.889c0.644,0.224,1.298,0.426,1.962,0.604l0,0c0.02,0.005,0.039,0.01,0.059,0.016
			c0.001,0,0.002,0.001,0.003,0.001c0.009,0.002,0.019,0.005,0.028,0.007l0.001,0c0.01,0.003,0.019,0.005,0.029,0.008
			c0.001,0,0.003,0.001,0.003,0.001c0.008,0.002,0.017,0.004,0.025,0.007c0.001,0,0.004,0.001,0.005,0.001
			c0.009,0.002,0.018,0.005,0.027,0.007c0.002,0,0.004,0.001,0.006,0.002c0.007,0.002,0.014,0.004,0.021,0.006
			c0.003,0.001,0.006,0.002,0.009,0.002c0.008,0.002,0.015,0.004,0.023,0.006c0.002,0,0.003,0.001,0.005,0.001
			c0.008,0.002,0.016,0.004,0.024,0.006c0.004,0.001,0.007,0.002,0.01,0.003c0.006,0.001,0.011,0.003,0.017,0.004
			c0.004,0.001,0.007,0.002,0.011,0.003c0.008,0.002,0.015,0.004,0.023,0.006c0.004,0.001,0.009,0.002,0.013,0.003
			c0.004,0.001,0.008,0.002,0.012,0.003c0.004,0.001,0.01,0.003,0.015,0.004c0.003,0.001,0.007,0.002,0.01,0.002
			c0.01,0.002,0.02,0.005,0.03,0.008c0.002,0.001,0.004,0.001,0.006,0.002c0.006,0.002,0.012,0.003,0.018,0.005
			c0.002,0,0.003,0.001,0.004,0.001c0.02,0.005,0.04,0.01,0.059,0.015c0.001,0,0.002,0.001,0.003,0.001
			c0.021,0.005,0.042,0.01,0.062,0.015c0,0,0,0,0,0c0.44,0.108,0.885,0.207,1.333,0.295l0.385-1.963
			C23.16,55.267,21.954,54.941,20.787,54.535L20.787,54.535z M31.782,55.903C31.028,55.967,30.261,56,29.5,56
			c-0.479,0-0.963-0.013-1.439-0.038l-0.107,1.997c0.405,0.022,0.811,0.035,1.22,0.039c0.001,0,0.003,0,0.004,0
			c0.007,0,0.012,0,0.018,0c0.002,0,0.003,0,0.005,0c0.005,0,0.012,0,0.017,0c0.003,0,0.005,0,0.008,0c0.005,0,0.01,0,0.015,0
			c0.003,0,0.006,0,0.008,0c0.005,0,0.01,0,0.015,0c0.003,0,0.006,0,0.009,0c0.005,0,0.01,0,0.014,0c0.003,0,0.006,0,0.009,0
			c0.005,0,0.01,0,0.015,0c0.003,0,0.006,0,0.01,0c0.005,0,0.008,0,0.013,0c0.004,0,0.007,0,0.011,0c0.005,0,0.008,0,0.013,0
			c0.004,0,0.007,0,0.011,0c0.004,0,0.008,0,0.012,0c0.004,0,0.008,0,0.011,0c0.004,0,0.009,0,0.012,0c0.004,0,0.007,0,0.011,0
			c0.004,0,0.008,0,0.012,0c0.004,0,0.008,0,0.012,0c0.004,0,0.007,0,0.011,0c0.004,0,0.009,0,0.013,0c0.004,0,0.007,0,0.01,0
			c0.008,0,0.016,0,0.023,0c0.011,0,0.023,0,0.034,0c0.002,0,0.005,0,0.007,0c0.011,0,0.022,0,0.033,0c0.002,0,0.006,0,0.008,0
			c0.011,0,0.023,0,0.034,0c0.001,0,0.001,0,0.002,0c0.011,0,0.022,0,0.033,0c0.003,0,0.004,0,0.007,0c0.011,0,0.022,0,0.033,0
			c0.003,0,0.005,0,0.008,0c0.011,0,0.022,0,0.033,0c0.002,0,0.003,0,0.005,0c0.01,0,0.02,0,0.03,0c0.003,0,0.005,0,0.008,0
			c0.01,0,0.021,0,0.031,0c0.003,0,0.007,0,0.01,0c0.01,0,0.021,0,0.032,0c0.003,0,0.004,0,0.007,0c0.009,0,0.019,0,0.028,0
			c0.003,0,0.005,0,0.008,0c0.01,0,0.021,0,0.031,0c0.004,0,0.006,0,0.01,0c0.01,0,0.02,0,0.03,0c0.004,0,0.007,0,0.01,0
			c0.008,0,0.015,0,0.023,0c0.004,0,0.008,0,0.012,0c0.009,0,0.019,0,0.028-0.001c0.004,0,0.009,0,0.013,0
			c0.009,0,0.019,0,0.028-0.001c0.005,0,0.008,0,0.013,0c0.007,0,0.013,0,0.02,0c0.007,0,0.012,0,0.019,0c0.007,0,0.015,0,0.022,0
			c0.005,0,0.01,0,0.015,0c0.008,0,0.017,0,0.025-0.001c0.005,0,0.012,0,0.016,0c0.006,0,0.012,0,0.018,0
			c0.007,0,0.014,0,0.02-0.001c0.006,0,0.013,0,0.019,0c0.006,0,0.012,0,0.017,0c0.006,0,0.013,0,0.019-0.001
			c0.008,0,0.015,0,0.023-0.001c0.004,0,0.008,0,0.013,0c0.01,0,0.021-0.001,0.031-0.001c0.004,0,0.007,0,0.011,0
			c0.007,0,0.013,0,0.019-0.001c0.003,0,0.006,0,0.009,0c0.011,0,0.023-0.001,0.034-0.001c0.003,0,0.006,0,0.009,0
			c0.011,0,0.023-0.001,0.035-0.001c0.003,0,0.005,0,0.008,0c0.021-0.001,0.043-0.001,0.064-0.002c0.002,0,0.005,0,0.007,0
			c0.011,0,0.025-0.001,0.036-0.001c0.003,0,0.005,0,0.007,0c0.022-0.001,0.043-0.002,0.065-0.003c0.001,0,0.002,0,0.003,0
			c0.013-0.001,0.029-0.001,0.042-0.002c0.001,0,0.002,0,0.003,0c0.023-0.001,0.044-0.002,0.067-0.003c0.001,0,0.002,0,0.003,0
			c0.013-0.001,0.027-0.001,0.041-0.002c0.002,0,0.004,0,0.005,0c0.022-0.001,0.044-0.002,0.066-0.003c0,0,0.001,0,0.001,0
			c0.014-0.001,0.027-0.001,0.042-0.002c0.002,0,0.004,0,0.006,0c0.013-0.001,0.026-0.001,0.04-0.002c0.001,0,0.002,0,0.003,0
			c0.008,0,0.014-0.001,0.022-0.001c0.001,0,0.003,0,0.004,0c0.013-0.001,0.025-0.001,0.038-0.002c0.003,0,0.006,0,0.009,0
			c0.01-0.001,0.023-0.001,0.033-0.002c0.003,0,0.006,0,0.009-0.001c0.006,0,0.013-0.001,0.019-0.001
			c0.005,0,0.011-0.001,0.016-0.001c0.009,0,0.016-0.001,0.025-0.001c0.005,0,0.01-0.001,0.014-0.001
			c0.008,0,0.017-0.001,0.025-0.001c0.006,0,0.012-0.001,0.017-0.001c0.006,0,0.01-0.001,0.016-0.001
			c0.009-0.001,0.017-0.001,0.026-0.002c0.005,0,0.009-0.001,0.014-0.001c0.007,0,0.014-0.001,0.02-0.001
			c0.005,0,0.01-0.001,0.014-0.001c0.009-0.001,0.017-0.001,0.026-0.002c0.004,0,0.008,0,0.011-0.001
			c0.01-0.001,0.02-0.001,0.03-0.002c0.003,0,0.006,0,0.009-0.001c0.01-0.001,0.02-0.001,0.03-0.002c0.001,0,0.002,0,0.003,0
			c0.011-0.001,0.023-0.002,0.035-0.002c0.002,0,0.003,0,0.005,0c0.012-0.001,0.023-0.002,0.035-0.002c0.001,0,0.001,0,0.002,0
			c0.152-0.011,0.303-0.022,0.454-0.035L31.782,55.903L31.782,55.903z M39.005,54.245c-1.153,0.443-2.348,0.808-3.552,1.084
			l0.447,1.949c0.512-0.117,1.019-0.249,1.52-0.393l0.001,0c0.02-0.006,0.04-0.011,0.059-0.017c0.001,0,0,0,0.001,0
			c0.03-0.009,0.059-0.017,0.089-0.026l0.001,0c0.02-0.006,0.039-0.012,0.059-0.017c0.001,0,0.001,0,0.002,0
			c0.019-0.006,0.038-0.011,0.058-0.017c0.001,0,0.003-0.001,0.004-0.001c0.009-0.003,0.018-0.005,0.026-0.008
			c0.001,0,0.001,0,0.002,0c0.009-0.003,0.019-0.006,0.028-0.009c0.001,0,0.003-0.001,0.004-0.001
			c0.008-0.002,0.016-0.005,0.025-0.007c0.002-0.001,0.003-0.001,0.005-0.001c0.009-0.003,0.019-0.006,0.028-0.008
			c0.001,0,0.001,0,0.002-0.001c0.008-0.002,0.016-0.005,0.024-0.007c0.003-0.001,0.005-0.002,0.008-0.002
			c0.009-0.003,0.017-0.005,0.026-0.008l0,0c0.009-0.003,0.018-0.006,0.027-0.008c0.003-0.001,0.004-0.001,0.007-0.002
			c0.008-0.002,0.015-0.005,0.023-0.007c0.002-0.001,0.002-0.001,0.004-0.001c0.009-0.003,0.018-0.006,0.027-0.008
			c0.002-0.001,0.004-0.001,0.005-0.002c0.008-0.002,0.015-0.005,0.023-0.007c0.002-0.001,0.003-0.001,0.005-0.002
			c0.009-0.003,0.018-0.006,0.027-0.008c0.001,0,0.003-0.001,0.004-0.001c0.008-0.002,0.015-0.005,0.023-0.007
			c0.003-0.001,0.005-0.001,0.007-0.002c0.008-0.002,0.015-0.005,0.023-0.007c0.002-0.001,0.003-0.001,0.004-0.001
			c0.009-0.003,0.017-0.005,0.026-0.008c0.003-0.001,0.005-0.001,0.007-0.002c0.007-0.002,0.015-0.005,0.022-0.007
			c0.002-0.001,0.003-0.001,0.005-0.002c0.009-0.003,0.018-0.006,0.026-0.008c0.003-0.001,0.004-0.001,0.007-0.002
			c0.007-0.002,0.013-0.004,0.02-0.006c0.003-0.001,0.005-0.002,0.008-0.003c0.009-0.003,0.017-0.005,0.026-0.008
			c0.002-0.001,0.002-0.001,0.004-0.001c0.007-0.002,0.015-0.005,0.022-0.007c0.003-0.001,0.005-0.002,0.008-0.003
			c0.007-0.002,0.014-0.005,0.021-0.007c0.002-0.001,0.004-0.001,0.005-0.002c0.008-0.003,0.017-0.005,0.025-0.008
			c0.003-0.001,0.007-0.002,0.009-0.003c0.006-0.002,0.012-0.004,0.018-0.006c0.003-0.001,0.005-0.002,0.008-0.003
			c0.008-0.003,0.017-0.005,0.025-0.008c0.003-0.001,0.005-0.002,0.008-0.003c0.006-0.002,0.013-0.004,0.019-0.006
			c0.003-0.001,0.005-0.002,0.009-0.003c0.008-0.003,0.016-0.005,0.025-0.008c0.002-0.001,0.004-0.001,0.006-0.002
			c0.007-0.002,0.014-0.005,0.021-0.007c0.003-0.001,0.005-0.002,0.008-0.003c0.007-0.002,0.014-0.005,0.022-0.007
			c0.002-0.001,0.004-0.001,0.005-0.002c0.009-0.003,0.017-0.006,0.026-0.009c0.002-0.001,0.006-0.002,0.007-0.002
			c0.007-0.002,0.013-0.004,0.02-0.007c0.003-0.001,0.005-0.002,0.008-0.003c0.008-0.003,0.017-0.006,0.025-0.009
			c0.002-0.001,0.004-0.001,0.006-0.002c0.007-0.002,0.014-0.005,0.021-0.007c0.003-0.001,0.005-0.002,0.007-0.003
			c0.017-0.006,0.035-0.012,0.052-0.018c0.003-0.001,0.005-0.002,0.008-0.003c0.008-0.003,0.015-0.005,0.023-0.008
			c0.001,0,0.003-0.001,0.003-0.001c0.009-0.003,0.018-0.006,0.027-0.009c0.002-0.001,0.004-0.001,0.006-0.002
			c0.008-0.003,0.015-0.005,0.023-0.008c0.002-0.001,0.003-0.001,0.005-0.002c0.009-0.003,0.018-0.006,0.027-0.009
			c0.002-0.001,0.003-0.001,0.004-0.001c0.008-0.003,0.016-0.005,0.024-0.008c0.002-0.001,0.003-0.001,0.005-0.002
			c0.018-0.006,0.037-0.013,0.055-0.019c0.001,0,0.003-0.001,0.003-0.001c0.009-0.003,0.018-0.006,0.027-0.009l0.001,0
			c0.01-0.003,0.019-0.007,0.029-0.01c0.001,0,0.001,0,0.001-0.001c0.029-0.01,0.058-0.02,0.087-0.031c0.001,0,0,0,0.001,0
			c0.234-0.083,0.467-0.169,0.699-0.258L39.005,54.245L39.005,54.245z M45.483,50.64c-0.986,0.747-2.034,1.43-3.113,2.031
			l0.973,1.747c1.169-0.651,2.287-1.381,3.347-2.184L45.483,50.64L45.483,50.64z M50.715,45.382
			c-0.742,0.989-1.56,1.935-2.433,2.811l1.418,1.411c0.195-0.196,0.387-0.394,0.576-0.596c0,0,0.001-0.001,0.001-0.001
			c0.014-0.015,0.027-0.029,0.041-0.044c0.001-0.001,0.003-0.003,0.004-0.004c0.004-0.004,0.009-0.009,0.012-0.013
			c0.002-0.002,0.004-0.004,0.005-0.006c0.007-0.007,0.012-0.013,0.019-0.02c0.003-0.003,0.006-0.006,0.009-0.009
			c0.004-0.004,0.006-0.006,0.01-0.01c0.003-0.003,0.006-0.006,0.009-0.009c0.005-0.005,0.008-0.009,0.013-0.014
			c0.004-0.004,0.008-0.009,0.012-0.013c0.002-0.003,0.005-0.005,0.007-0.008c0.004-0.005,0.009-0.01,0.013-0.015
			c0.002-0.002,0.003-0.004,0.005-0.006c0.006-0.007,0.012-0.013,0.018-0.02c0.001-0.001,0.003-0.004,0.005-0.005
			c0.006-0.006,0.011-0.012,0.016-0.018c0.001-0.001,0.001-0.002,0.003-0.003c0.007-0.007,0.013-0.015,0.02-0.022l0.001-0.001
			c0.007-0.007,0.013-0.014,0.02-0.022c0.001-0.001,0,0,0.001-0.001c0.633-0.691,1.232-1.413,1.795-2.164L50.715,45.382
			L50.715,45.382z M54.29,38.888c-0.437,1.154-0.962,2.289-1.558,3.372l1.752,0.964c0.64-1.163,1.201-2.374,1.676-3.628
			L54.29,38.888L54.29,38.888z M55.914,31.656c-0.099,1.235-0.287,2.471-0.557,3.674l1.951,0.438
			c0.083-0.372,0.16-0.746,0.228-1.123l0-0.001c0.005-0.03,0.011-0.06,0.016-0.091l0-0.001c0.004-0.02,0.007-0.04,0.011-0.06
			c0-0.001,0-0.001,0-0.002c0.003-0.02,0.007-0.039,0.01-0.059c0-0.001,0-0.003,0.001-0.003c0.001-0.009,0.003-0.017,0.004-0.026
			c0-0.002,0-0.002,0.001-0.004c0.003-0.019,0.007-0.038,0.01-0.057c0-0.001,0.001-0.004,0.001-0.005
			c0.001-0.008,0.003-0.016,0.004-0.024c0-0.002,0-0.003,0.001-0.005c0.002-0.009,0.003-0.019,0.005-0.028
			c0-0.002,0-0.002,0.001-0.004c0.001-0.008,0.003-0.016,0.004-0.024c0-0.002,0.001-0.004,0.001-0.006
			c0.003-0.019,0.006-0.038,0.009-0.057c0-0.002,0.001-0.004,0.001-0.006c0.001-0.009,0.003-0.017,0.004-0.026
			c0-0.001,0-0.002,0-0.003c0.002-0.01,0.003-0.019,0.005-0.029c0-0.002,0-0.003,0.001-0.004c0.001-0.008,0.003-0.016,0.004-0.024
			c0-0.003,0.001-0.004,0.001-0.007c0.001-0.009,0.003-0.018,0.004-0.026c0-0.001,0-0.001,0-0.002
			c0.001-0.009,0.003-0.018,0.004-0.027c0-0.003,0.001-0.005,0.001-0.008c0.001-0.007,0.002-0.014,0.003-0.021
			c0-0.003,0.001-0.005,0.001-0.007c0.001-0.009,0.003-0.018,0.004-0.027c0-0.002,0.001-0.004,0.001-0.006
			c0.001-0.007,0.002-0.014,0.003-0.022c0-0.003,0.001-0.006,0.001-0.009c0.001-0.008,0.002-0.015,0.004-0.023
			c0-0.003,0.001-0.005,0.001-0.008c0.001-0.008,0.002-0.016,0.004-0.024c0.001-0.004,0.001-0.006,0.002-0.01
			c0.001-0.006,0.002-0.013,0.003-0.019c0-0.003,0.001-0.006,0.001-0.008c0.001-0.008,0.003-0.017,0.004-0.026
			c0.001-0.004,0.001-0.007,0.002-0.01c0.001-0.006,0.002-0.011,0.003-0.017c0.001-0.004,0.001-0.008,0.002-0.012
			c0.001-0.006,0.002-0.012,0.003-0.017c0.001-0.005,0.001-0.009,0.002-0.014c0.001-0.007,0.002-0.013,0.003-0.02
			c0.001-0.005,0.001-0.008,0.002-0.012c0.001-0.005,0.001-0.01,0.002-0.014c0.001-0.005,0.001-0.009,0.002-0.013
			c0.001-0.008,0.002-0.016,0.003-0.024c0.001-0.004,0.001-0.008,0.002-0.012c0.001-0.005,0.001-0.01,0.002-0.015
			c0.001-0.005,0.001-0.009,0.002-0.014c0.001-0.004,0.001-0.009,0.002-0.013c0.001-0.007,0.002-0.015,0.003-0.022
			c0.001-0.005,0.001-0.009,0.002-0.014c0.001-0.005,0.001-0.011,0.002-0.015c0.001-0.004,0.001-0.007,0.002-0.011
			c0.001-0.006,0.001-0.009,0.002-0.015c0.001-0.004,0.001-0.009,0.002-0.013c0.001-0.008,0.002-0.016,0.003-0.024
			c0.001-0.004,0.001-0.008,0.002-0.013c0.001-0.006,0.001-0.009,0.002-0.015c0-0.003,0.001-0.007,0.001-0.01
			c0.001-0.01,0.003-0.023,0.005-0.033c0-0.002,0-0.003,0.001-0.005c0.001-0.006,0.002-0.011,0.002-0.017
			c0-0.003,0.001-0.006,0.001-0.009c0.003-0.019,0.005-0.04,0.008-0.06c0-0.001,0-0.002,0-0.003c0.001-0.007,0.002-0.013,0.003-0.02
			c0-0.002,0-0.003,0.001-0.005c0.003-0.02,0.005-0.041,0.008-0.062c0-0.001,0-0.002,0-0.003c0.003-0.021,0.006-0.043,0.008-0.064
			c0,0,0-0.001,0-0.001c0.001-0.007,0.002-0.014,0.003-0.022c0,0,0-0.001,0-0.001c0.057-0.442,0.103-0.887,0.139-1.335
			L55.914,31.656L55.914,31.656z M57.441,23.855l-1.961,0.394c0.243,1.208,0.402,2.449,0.474,3.686l1.997-0.116
			c-0.022-0.383-0.052-0.764-0.089-1.143c0,0,0,0,0,0c-0.002-0.022-0.004-0.043-0.006-0.064c0-0.002,0-0.004-0.001-0.006
			c-0.001-0.007-0.001-0.012-0.002-0.019c0-0.002,0-0.004-0.001-0.006c-0.001-0.011-0.002-0.024-0.004-0.035
			c0-0.002,0-0.005-0.001-0.007c-0.001-0.006-0.001-0.012-0.002-0.017c0-0.003-0.001-0.006-0.001-0.009
			c-0.001-0.008-0.002-0.017-0.003-0.026c0-0.004-0.001-0.009-0.001-0.013c-0.001-0.006-0.001-0.01-0.002-0.016
			c0-0.004-0.001-0.008-0.001-0.012c-0.001-0.005-0.001-0.01-0.002-0.015c-0.001-0.005-0.001-0.01-0.002-0.015
			c-0.001-0.006-0.001-0.013-0.002-0.018c-0.001-0.006-0.001-0.011-0.002-0.017c-0.001-0.005-0.001-0.009-0.001-0.013
			c-0.001-0.005-0.001-0.01-0.002-0.015c-0.001-0.005-0.001-0.008-0.001-0.013c-0.001-0.008-0.002-0.016-0.003-0.024
			c0-0.004-0.001-0.008-0.001-0.012c-0.001-0.005-0.001-0.011-0.002-0.016c0-0.004-0.001-0.008-0.001-0.011
			c-0.001-0.007-0.002-0.014-0.002-0.021c0-0.002-0.001-0.005-0.001-0.007c-0.001-0.009-0.002-0.018-0.003-0.027
			c0-0.002-0.001-0.006-0.001-0.008c-0.001-0.007-0.002-0.014-0.003-0.022c0-0.003,0-0.004-0.001-0.007
			c-0.001-0.009-0.002-0.019-0.003-0.028c0-0.001,0-0.002,0-0.003c-0.001-0.009-0.002-0.017-0.003-0.026
			c0-0.002,0-0.004-0.001-0.006c-0.001-0.009-0.002-0.019-0.003-0.028l0,0c-0.001-0.01-0.002-0.019-0.003-0.029
			c0-0.002,0-0.003-0.001-0.005c-0.001-0.008-0.002-0.017-0.003-0.025c0-0.001,0-0.003,0-0.004c-0.002-0.02-0.005-0.039-0.007-0.058
			c0-0.002,0-0.003-0.001-0.004c-0.001-0.009-0.002-0.019-0.003-0.028l0-0.001c-0.001-0.01-0.003-0.02-0.004-0.03l0-0.002
			c-0.001-0.009-0.002-0.019-0.004-0.028c0-0.001,0-0.002,0-0.003c-0.003-0.02-0.005-0.039-0.008-0.059c0-0.001,0-0.004-0.001-0.004
			c-0.001-0.01-0.002-0.019-0.004-0.028l0,0c-0.001-0.01-0.003-0.02-0.004-0.03c0-0.001,0-0.001,0-0.002
			c-0.001-0.009-0.002-0.018-0.004-0.028c0-0.001,0-0.002,0-0.003c-0.003-0.02-0.005-0.039-0.008-0.059c0-0.001,0-0.002,0-0.003
			c-0.001-0.009-0.003-0.019-0.004-0.028l0-0.002c-0.003-0.02-0.005-0.04-0.008-0.059c0-0.001,0-0.003,0-0.003
			c-0.003-0.02-0.005-0.04-0.008-0.06c0-0.001,0-0.001,0-0.002c-0.001-0.01-0.003-0.019-0.004-0.029c0-0.001,0-0.001,0-0.001
			c-0.001-0.01-0.003-0.02-0.004-0.03l0-0.002c-0.001-0.009-0.003-0.018-0.004-0.028c0-0.002,0-0.002-0.001-0.004
			c-0.001-0.01-0.003-0.019-0.004-0.029l0,0c-0.001-0.01-0.003-0.02-0.004-0.029c0-0.001,0-0.003-0.001-0.004
			c-0.001-0.008-0.002-0.016-0.004-0.025c0-0.002-0.001-0.004-0.001-0.006c-0.001-0.009-0.003-0.019-0.004-0.028l0-0.001
			c-0.001-0.009-0.003-0.018-0.004-0.026c0-0.003-0.001-0.005-0.001-0.008c-0.001-0.008-0.002-0.016-0.004-0.023
			c0-0.001-0.001-0.004-0.001-0.005c-0.001-0.009-0.003-0.018-0.004-0.027c0-0.003-0.001-0.005-0.001-0.007
			c-0.001-0.007-0.002-0.014-0.003-0.021c0-0.003-0.001-0.004-0.001-0.007c-0.001-0.009-0.003-0.018-0.004-0.027
			c0-0.002,0-0.003-0.001-0.005c-0.001-0.007-0.002-0.015-0.003-0.022c-0.001-0.004-0.001-0.008-0.002-0.012
			c-0.001-0.005-0.002-0.01-0.002-0.016c-0.001-0.005-0.001-0.007-0.002-0.012c-0.001-0.008-0.003-0.016-0.004-0.024
			c-0.001-0.005-0.001-0.008-0.002-0.012c-0.001-0.005-0.001-0.009-0.002-0.014c-0.001-0.005-0.002-0.01-0.002-0.014
			c-0.001-0.004-0.001-0.008-0.002-0.012c-0.002-0.01-0.003-0.018-0.004-0.028c0-0.003-0.001-0.005-0.001-0.008
			c-0.001-0.006-0.002-0.011-0.003-0.017c0-0.003-0.001-0.005-0.001-0.008c-0.003-0.019-0.007-0.04-0.01-0.06
			c0-0.001,0-0.002,0-0.003C57.57,24.53,57.509,24.193,57.441,23.855L57.441,23.855z M54.785,16.337l-1.773,0.925
			c0.572,1.096,1.07,2.242,1.482,3.406l1.886-0.666c-0.096-0.272-0.195-0.54-0.299-0.807c-0.001-0.002-0.002-0.004-0.002-0.006
			c-0.002-0.006-0.004-0.011-0.007-0.017c-0.001-0.002-0.002-0.004-0.003-0.007c-0.004-0.009-0.006-0.017-0.01-0.026
			c-0.002-0.004-0.003-0.009-0.005-0.013c-0.002-0.004-0.003-0.008-0.005-0.012c-0.002-0.005-0.004-0.011-0.006-0.016
			c-0.002-0.004-0.003-0.009-0.005-0.013c-0.003-0.007-0.005-0.013-0.008-0.02c-0.001-0.003-0.002-0.005-0.003-0.008
			c-0.003-0.008-0.006-0.016-0.009-0.023c0-0.001-0.001-0.001-0.001-0.002c-0.004-0.009-0.007-0.019-0.011-0.028
			c0-0.001,0-0.001-0.001-0.002c-0.296-0.747-0.623-1.479-0.979-2.193v0c-0.004-0.009-0.009-0.017-0.013-0.026
			c0-0.001-0.001-0.002-0.001-0.002c-0.004-0.009-0.009-0.018-0.013-0.026c0-0.001-0.001-0.001-0.001-0.002
			c-0.004-0.008-0.008-0.016-0.012-0.024c-0.001-0.002-0.002-0.003-0.002-0.005c-0.004-0.008-0.008-0.017-0.013-0.025
			c-0.001-0.002-0.001-0.001-0.001-0.003c-0.004-0.007-0.007-0.014-0.011-0.021c-0.002-0.003-0.003-0.005-0.004-0.008
			c-0.003-0.006-0.006-0.012-0.009-0.019c-0.001-0.002-0.003-0.005-0.004-0.008c-0.003-0.007-0.007-0.013-0.01-0.02
			c-0.002-0.004-0.004-0.008-0.006-0.012c-0.002-0.004-0.004-0.008-0.006-0.012c-0.005-0.01-0.011-0.021-0.016-0.031c0,0,0,0,0,0
			c-0.003-0.006-0.005-0.01-0.008-0.016c-0.001-0.002-0.002-0.004-0.003-0.007c-0.009-0.018-0.018-0.035-0.027-0.053
			c0-0.001-0.001-0.001-0.001-0.002C54.837,16.437,54.811,16.387,54.785,16.337L54.785,16.337z M50.145,9.852l-1.449,1.379
			c0.853,0.896,1.65,1.86,2.369,2.865l1.626-1.164c-0.164-0.229-0.331-0.455-0.501-0.679c-0.001-0.001,0,0,0-0.001
			c-0.012-0.016-0.025-0.033-0.037-0.049l-0.001-0.001c-0.012-0.016-0.025-0.032-0.037-0.049c-0.001-0.001,0,0-0.001-0.001
			c-0.006-0.008-0.012-0.015-0.017-0.022c-0.001-0.001-0.001-0.002-0.002-0.003c-0.006-0.008-0.012-0.016-0.018-0.024l0-0.001
			c-0.006-0.008-0.012-0.015-0.017-0.022c-0.001-0.001-0.001-0.002-0.002-0.003c-0.012-0.016-0.024-0.031-0.036-0.046
			c-0.001-0.001-0.002-0.003-0.003-0.003c-0.012-0.015-0.024-0.031-0.036-0.046c-0.001-0.001-0.001-0.001-0.002-0.003
			c-0.012-0.016-0.024-0.031-0.036-0.047c-0.001-0.001-0.002-0.002-0.002-0.003c-0.012-0.015-0.024-0.031-0.036-0.046
			c-0.001-0.001-0.001-0.002-0.002-0.003c-0.006-0.007-0.012-0.015-0.017-0.022c-0.001-0.001,0,0-0.001-0.001
			c-0.006-0.008-0.012-0.016-0.019-0.023c-0.001-0.001-0.001-0.002-0.002-0.002c-0.006-0.007-0.011-0.014-0.017-0.022
			c-0.001-0.001-0.001-0.001-0.001-0.002c-0.006-0.008-0.012-0.016-0.019-0.024c-0.001-0.001,0,0-0.001-0.001
			c-0.006-0.008-0.012-0.015-0.018-0.023c-0.001-0.001-0.001-0.001-0.002-0.002c-0.006-0.008-0.013-0.016-0.019-0.024l0,0
			c-0.006-0.008-0.012-0.015-0.018-0.023c-0.001-0.001-0.001-0.001-0.002-0.002c-0.013-0.016-0.025-0.032-0.038-0.048l-0.001-0.001
			c-0.013-0.016-0.026-0.032-0.039-0.048l0,0C51.198,11.005,50.683,10.417,50.145,9.852L50.145,9.852z M43.897,4.898l-1.012,1.725
			c1.065,0.625,2.097,1.331,3.067,2.1l1.243-1.567c-0.26-0.207-0.524-0.409-0.792-0.606L46.401,6.55
			c-0.008-0.006-0.016-0.012-0.024-0.018l-0.002-0.001c-0.007-0.005-0.014-0.01-0.021-0.016c-0.001-0.001-0.003-0.002-0.004-0.003
			c-0.007-0.005-0.015-0.011-0.022-0.016c-0.001-0.001-0.003-0.002-0.005-0.003c-0.006-0.004-0.012-0.008-0.017-0.013
			c-0.002-0.002-0.005-0.004-0.008-0.005c-0.007-0.005-0.014-0.01-0.021-0.016c-0.001-0.001-0.003-0.002-0.004-0.003
			c-0.005-0.004-0.011-0.008-0.017-0.012c-0.004-0.003-0.007-0.005-0.01-0.008c-0.004-0.003-0.007-0.005-0.011-0.008
			c-0.006-0.004-0.013-0.009-0.019-0.013c-0.003-0.002-0.007-0.005-0.01-0.007c-0.004-0.003-0.008-0.006-0.013-0.009
			c-0.003-0.002-0.005-0.004-0.008-0.006c-0.009-0.007-0.019-0.014-0.028-0.021c-0.001,0-0.001-0.001-0.001-0.001
			c-0.005-0.004-0.01-0.007-0.015-0.011c-0.002-0.001-0.004-0.003-0.006-0.004c-0.016-0.011-0.032-0.023-0.048-0.035
			c-0.001,0-0.001-0.001-0.001-0.001C45.379,5.814,44.648,5.339,43.897,4.898L43.897,4.898z M36.52,1.871L36.029,3.81
			c1.197,0.303,2.384,0.695,3.527,1.164l0.759-1.85c-0.019-0.008-0.038-0.016-0.057-0.023l-0.001,0
			c-0.009-0.004-0.018-0.008-0.028-0.011c-0.001,0-0.002-0.001-0.003-0.001c-0.007-0.003-0.015-0.006-0.023-0.009
			c-0.003-0.001-0.005-0.002-0.007-0.003c-0.008-0.003-0.015-0.006-0.023-0.009c-0.003-0.001-0.005-0.002-0.008-0.003
			c-0.006-0.003-0.012-0.005-0.019-0.008c-0.003-0.001-0.008-0.003-0.011-0.004c-0.005-0.002-0.009-0.004-0.014-0.006
			c-0.005-0.002-0.01-0.004-0.015-0.006c-0.006-0.002-0.011-0.004-0.017-0.007c-0.005-0.002-0.01-0.004-0.015-0.006
			c-0.003-0.001-0.006-0.002-0.009-0.004c-0.017-0.007-0.035-0.014-0.052-0.021C40.013,3.002,40.01,3.001,40.008,3
			c-0.006-0.002-0.011-0.004-0.017-0.007c-0.001,0-0.002-0.001-0.003-0.001c-0.012-0.005-0.024-0.01-0.036-0.014
			c-0.001,0-0.002-0.001-0.003-0.001c-0.364-0.144-0.73-0.279-1.102-0.408c-0.001,0-0.001,0-0.002-0.001
			c-0.02-0.007-0.038-0.013-0.058-0.02c-0.002-0.001-0.003-0.001-0.005-0.002c-0.006-0.002-0.012-0.004-0.018-0.006
			c-0.001,0-0.002-0.001-0.003-0.001c-0.011-0.004-0.022-0.008-0.034-0.011c-0.003-0.001-0.005-0.002-0.008-0.003
			c-0.005-0.002-0.011-0.004-0.016-0.005c-0.003-0.001-0.005-0.002-0.008-0.003c-0.009-0.003-0.019-0.006-0.028-0.01
			c-0.003-0.001-0.006-0.002-0.009-0.003c-0.004-0.001-0.009-0.003-0.014-0.005c-0.004-0.001-0.008-0.003-0.013-0.004
			c-0.004-0.001-0.009-0.003-0.013-0.005c-0.007-0.002-0.014-0.005-0.022-0.007c-0.004-0.001-0.008-0.003-0.013-0.004
			c-0.004-0.001-0.009-0.003-0.013-0.004c-0.004-0.001-0.008-0.003-0.013-0.004c-0.006-0.002-0.013-0.004-0.019-0.006
			c-0.004-0.001-0.008-0.003-0.012-0.004c-0.006-0.002-0.011-0.004-0.017-0.006c-0.003-0.001-0.007-0.002-0.011-0.004
			c-0.007-0.002-0.013-0.004-0.02-0.007c-0.002-0.001-0.004-0.001-0.005-0.002c-0.008-0.003-0.017-0.006-0.025-0.008
			c-0.003-0.001-0.005-0.002-0.009-0.003c-0.007-0.002-0.013-0.004-0.02-0.007c-0.003-0.001-0.004-0.001-0.007-0.002
			c-0.009-0.003-0.018-0.006-0.027-0.009c-0.002-0.001-0.002-0.001-0.004-0.001c-0.008-0.003-0.017-0.005-0.025-0.008
			c-0.002-0.001-0.002-0.001-0.004-0.001c-0.019-0.006-0.038-0.012-0.057-0.019l-0.001,0C37.713,2.194,37.12,2.023,36.52,1.871
			L36.52,1.871z M29.5,1v2c0.959,0,1.925,0.052,2.872,0.154l0.214-1.988c-0.008-0.001-0.016-0.002-0.024-0.003l0,0
			c-0.008-0.001-0.015-0.002-0.023-0.002c-0.001,0,0,0-0.001,0c-0.008-0.001-0.015-0.002-0.023-0.002l0,0
			c-0.008-0.001-0.016-0.002-0.023-0.002c-0.001,0,0,0-0.001,0c-0.095-0.01-0.189-0.019-0.284-0.028c-0.001,0-0.004,0-0.005,0
			c-0.007-0.001-0.013-0.001-0.02-0.002c-0.002,0-0.001,0-0.003,0c-0.007-0.001-0.013-0.001-0.02-0.002c-0.001,0-0.004,0-0.005,0
			c-0.007-0.001-0.013-0.001-0.02-0.002c-0.001,0-0.003,0-0.004,0c-0.006-0.001-0.013-0.001-0.019-0.002
			c-0.002,0-0.004,0-0.006-0.001c-0.006-0.001-0.012-0.001-0.018-0.002c-0.001,0-0.004,0-0.005,0
			c-0.006-0.001-0.012-0.001-0.018-0.002c-0.002,0-0.003,0-0.005,0c-0.006-0.001-0.012-0.001-0.019-0.002c-0.002,0-0.003,0-0.005,0
			C32.03,1.111,32.025,1.11,32.019,1.11c-0.002,0-0.004,0-0.006-0.001C32.006,1.109,32,1.108,31.993,1.108c-0.001,0-0.003,0-0.004,0
			c-0.007-0.001-0.014-0.001-0.021-0.002c-0.001,0-0.001,0-0.002,0c-0.032-0.003-0.063-0.005-0.095-0.008c-0.002,0-0.004,0-0.006,0
			c-0.006,0-0.011-0.001-0.017-0.001c-0.003,0-0.006-0.001-0.009-0.001c-0.004,0-0.009-0.001-0.013-0.001
			c-0.004,0-0.008-0.001-0.012-0.001s-0.008-0.001-0.011-0.001c-0.004,0-0.007-0.001-0.011-0.001c-0.004,0-0.009-0.001-0.013-0.001
			c-0.003,0-0.008-0.001-0.011-0.001c-0.004,0-0.008-0.001-0.013-0.001c-0.003,0-0.007-0.001-0.01-0.001
			c-0.004,0-0.009-0.001-0.013-0.001c-0.004,0-0.007-0.001-0.011-0.001c-0.004,0-0.009-0.001-0.013-0.001
			c-0.004,0-0.006,0-0.009-0.001c-0.005,0-0.01-0.001-0.014-0.001c-0.003,0-0.007,0-0.009-0.001c-0.005,0-0.009-0.001-0.014-0.001
			c-0.003,0-0.006,0-0.009-0.001c-0.004,0-0.009-0.001-0.013-0.001c-0.004,0-0.007-0.001-0.011-0.001
			c-0.004,0-0.008-0.001-0.012-0.001c-0.004,0-0.007,0-0.01-0.001c-0.004,0-0.008-0.001-0.012-0.001
			c-0.005,0-0.007-0.001-0.012-0.001c-0.003,0-0.006,0-0.009-0.001c-0.005,0-0.009-0.001-0.014-0.001c-0.003,0-0.005,0-0.008-0.001
			c-0.008-0.001-0.019-0.001-0.027-0.002c-0.004,0-0.008-0.001-0.011-0.001c-0.003,0-0.006,0-0.009-0.001
			c-0.005,0-0.009-0.001-0.014-0.001c-0.005,0-0.009-0.001-0.013-0.001c-0.003,0-0.007,0-0.01-0.001
			c-0.006,0-0.009-0.001-0.015-0.001c-0.003,0-0.005,0-0.008-0.001c-0.005,0-0.009-0.001-0.014-0.001c-0.003,0-0.007,0-0.01-0.001
			c-0.004,0-0.009-0.001-0.013-0.001c-0.003,0-0.007,0-0.01-0.001c-0.005,0-0.008-0.001-0.013-0.001c-0.004,0-0.007,0-0.011-0.001
			c-0.005,0-0.007,0-0.012-0.001c-0.004,0-0.008-0.001-0.011-0.001c-0.004,0-0.008-0.001-0.012-0.001
			c-0.004,0-0.008-0.001-0.012-0.001c-0.004,0-0.007,0-0.011-0.001c-0.004,0-0.008,0-0.011-0.001c-0.004,0-0.009-0.001-0.013-0.001
			c-0.004,0-0.007,0-0.011-0.001c-0.005,0-0.008,0-0.012-0.001c-0.003,0-0.007,0-0.01-0.001c-0.005,0-0.009-0.001-0.013-0.001
			c-0.003,0-0.007,0-0.01-0.001c-0.004,0-0.009-0.001-0.013-0.001c-0.003,0-0.006,0-0.009-0.001c-0.004,0-0.01-0.001-0.014-0.001
			c-0.003,0-0.006,0-0.009,0c-0.005,0-0.01-0.001-0.014-0.001c-0.002,0-0.005,0-0.007,0c-0.006,0-0.011-0.001-0.016-0.001
			c-0.001,0-0.001,0-0.002,0c-0.028-0.002-0.057-0.003-0.085-0.005c-0.002,0-0.003,0-0.005,0c-0.006,0-0.011-0.001-0.017-0.001
			c-0.002,0-0.004,0-0.007,0c-0.006,0-0.01-0.001-0.016-0.001c-0.003,0-0.005,0-0.008,0c-0.005,0-0.01-0.001-0.015-0.001
			c-0.003,0-0.006,0-0.009,0c-0.005,0-0.009,0-0.013-0.001c-0.003,0-0.007,0-0.01-0.001c-0.005,0-0.009,0-0.014-0.001
			c-0.003,0-0.006,0-0.009,0c-0.005,0-0.009,0-0.013-0.001c-0.003,0-0.007,0-0.01,0c-0.005,0-0.009,0-0.014-0.001
			c-0.003,0-0.006,0-0.009,0c-0.005,0-0.01,0-0.015-0.001c-0.003,0-0.006,0-0.009,0c-0.005,0-0.01,0-0.015-0.001
			c-0.003,0-0.006,0-0.008,0c-0.005,0-0.01,0-0.015-0.001c-0.003,0-0.006,0-0.009,0c-0.005,0-0.01,0-0.014-0.001
			c-0.003,0-0.006,0-0.008,0c-0.006,0-0.009,0-0.015-0.001c-0.003,0-0.005,0-0.007,0c-0.006,0-0.011,0-0.016-0.001
			c-0.001,0-0.002,0-0.004,0c-0.035-0.002-0.07-0.003-0.105-0.004c-0.002,0-0.004,0-0.006,0c-0.006,0-0.009,0-0.015-0.001
			c-0.003,0-0.006,0-0.009,0c-0.004,0-0.009,0-0.013,0c-0.004,0-0.007,0-0.011,0c-0.004,0-0.009,0-0.013,0c-0.003,0-0.007,0-0.01,0
			c-0.005,0-0.009,0-0.013,0c-0.003,0-0.007,0-0.01,0c-0.005,0-0.009,0-0.013,0c-0.003,0-0.006,0-0.01,0c-0.004,0-0.01,0-0.014,0
			c-0.003,0-0.007,0-0.01,0c-0.005,0-0.009,0-0.014,0c-0.003,0-0.006,0-0.009,0c-0.005,0-0.01,0-0.015,0c-0.003,0-0.006,0-0.009,0
			c-0.005,0-0.01,0-0.014,0c-0.003,0-0.007,0-0.01,0c-0.005,0-0.009,0-0.013,0c-0.004,0-0.007,0-0.011,0c-0.004,0-0.009,0-0.013,0
			c-0.003,0-0.006,0-0.009,0c-0.005,0-0.01,0-0.015,0c-0.002,0-0.004,0-0.006,0c-0.006,0-0.012,0-0.017-0.001
			c-0.001,0-0.003,0-0.004,0c-0.028-0.001-0.053-0.002-0.081-0.002c-0.003,0-0.005,0-0.008,0c-0.004,0-0.008,0-0.011,0
			c-0.004,0-0.008,0-0.013,0c-0.003,0-0.007,0-0.01,0c-0.005,0-0.009,0-0.013,0c-0.004,0-0.007,0-0.011,0c-0.004,0-0.008,0-0.012,0
			c-0.005,0-0.008,0-0.013,0c-0.004,0-0.007,0-0.011,0c-0.005,0-0.007,0-0.012,0c-0.004,0-0.008,0-0.012,0c-0.004,0-0.008,0-0.012,0
			c-0.004,0-0.008,0-0.012,0c-0.004,0-0.008,0-0.012,0c-0.004,0-0.008,0-0.011,0c-0.004,0-0.009,0-0.012,0c-0.004,0-0.008,0-0.012,0
			c-0.004,0-0.008,0-0.012,0c-0.004,0-0.008,0-0.012,0c-0.004,0-0.008,0-0.012,0c-0.004,0-0.008,0-0.012,0c-0.004,0-0.009,0-0.012,0
			c-0.004,0-0.007,0-0.011,0c-0.004,0-0.009,0-0.013,0c-0.004,0-0.007,0-0.011,0c-0.004,0-0.008,0-0.012,0c-0.005,0-0.009,0-0.014,0
			c-0.004,0-0.006,0-0.009,0c-0.006,0-0.012,0-0.018,0c-0.002,0-0.003,0-0.005,0c-0.008,0-0.016,0-0.023,0c-0.003,0-0.005,0-0.008,0
			c-0.005,0-0.011,0-0.016,0c-0.003,0-0.005,0-0.007,0c-0.005,0-0.011,0-0.016,0c-0.003,0-0.006,0-0.009,0c-0.005,0-0.01,0-0.015,0
			c-0.003,0-0.007,0-0.009,0c-0.005,0-0.009,0-0.014,0c-0.004,0-0.007,0-0.011,0c-0.004,0-0.009,0-0.013,0c-0.004,0-0.007,0-0.011,0
			c-0.004,0-0.008,0-0.012,0c-0.004,0-0.008,0-0.012,0c-0.004,0-0.008,0-0.012,0c-0.004,0-0.008,0-0.012,0c-0.004,0-0.008,0-0.012,0
			c-0.004,0-0.008,0-0.012,0c-0.004,0-0.008,0-0.012,0c-0.004,0-0.007,0-0.011,0c-0.004,0-0.009,0-0.013,0c-0.003,0-0.008,0-0.011,0
			c-0.004,0-0.009,0-0.013,0c-0.004,0-0.007,0-0.01,0c-0.004,0-0.008,0-0.013,0c-0.004,0-0.008,0-0.011,0c-0.004,0-0.008,0-0.012,0
			c-0.004,0-0.008,0-0.011,0c-0.004,0-0.008,0-0.012,0c-0.005,0-0.008,0-0.012,0c-0.004,0-0.007,0-0.011,0c-0.005,0-0.008,0-0.013,0
			C29.516,1,29.508,1,29.5,1L29.5,1L29.5,1z"/>
	</g>
</g>
</svg>
