<?xml version="1.0" encoding="utf-8"?>
<!-- Generator: Adobe Illustrator 17.0.0, SVG Export Plug-In . SVG Version: 6.00 Build 0)  -->
<!DOCTYPE svg PUBLIC "-//W3C//DTD SVG 1.1//EN" "http://www.w3.org/Graphics/SVG/1.1/DTD/svg11.dtd">
<svg version="1.1" id="图层_1" xmlns="http://www.w3.org/2000/svg" xmlns:xlink="http://www.w3.org/1999/xlink" x="0px" y="0px"
	 width="384px" height="250px" viewBox="0 0 384 250" enable-background="new 0 0 384 250" xml:space="preserve">
<g>
	<path fill="none" stroke="#A9E0FF" stroke-width="2" stroke-miterlimit="100" d="M3.366,163.676h26.851l17.753-40.431H21.119
		L3.366,163.676z M77.705,123.467H51.963v40.21h90.316l5.77-9.5H77.705V123.467z M101.449,143.792h26.407l-12.871-20.326H88.578
		L101.449,143.792z M23.338,111.757l9.098-48.384v54.128h25.297v-42.64l5.326,12.593h21.747v29.826h92.313V31.338h-25.298v23.861
		h-41.718V40.838h36.171l5.548-9.5H84.806v54.57L72.601,57.629H57.733v-8.616h18.64l4.66-10.332l-23.3-0.052V2.803l-25.297,12
		v23.826H5.363v10.384h9.986L3.588,111.757H23.338z M110.103,64.699h41.718V81.49h-41.718
		C110.103,81.49,110.103,64.699,110.103,64.699z M110.103,90.989h41.718v16.791h-41.718
		C110.103,107.78,110.103,90.989,110.103,90.989z M321.007,163.313l28.786-6.413v-9.82l-44.688,10.021v-11.223h-52.74l10.669-4.609
		h86.961v-35.474h-21.942v25.653h-49.922v-15.833h43.682l6.24-9.82h-7.247l12.279-19.841H223.377l16.416-32.61h-22.344
		l-25.071,48.442h22.344l3.221-6.013h86.76l-6.24,10.021H188.149v35.474h51.935l-52.972,23.182l-19.536-40.983h-26.407l19.75,41.431
		h25.171l-0.96,0.42h22.948l21.74-9.42h23.753l-68.442,29.862h22.948l68.442-29.862h6.643v5.812l-98.033,42.488h22.948
		l75.085-32.467v23.449h-39.656l5.234,9.82h56.364v-31.866L360.052,250H383L321.007,163.313z M210.091,131.447v-15.833h44.688
		v15.833H210.091z"/>
</g>
</svg>
